<svg xmlns="http://www.w3.org/2000/svg" viewBox="0 0 512 512" width="512" height="512">
  <defs>
    <linearGradient id="glow" x1="0%" y1="0%" x2="100%" y2="100%">
      <stop offset="0%" stop-color="#818cf8"/>
      <stop offset="100%" stop-color="#4f46e5"/>
    </linearGradient>
  </defs>
  <rect width="512" height="512" rx="128" fill="#0a0a0c"/>
  <!-- Soundwave visualizer lines -->
  <rect x="130" y="220" width="16" height="72" rx="8" fill="#312e81"/>
  <rect x="170" y="180" width="16" height="152" rx="8" fill="#4338ca"/>
  <rect x="210" y="140" width="16" height="232" rx="8" fill="#4f46e5"/>
  <rect x="250" y="100" width="16" height="312" rx="8" fill="url(#glow)"/>
  <rect x="290" y="140" width="16" height="232" rx="8" fill="#4f46e5"/>
  <rect x="330" y="180" width="16" height="152" rx="8" fill="#4338ca"/>
  <rect x="370" y="220" width="16" height="72" rx="8" fill="#312e81"/>
  <!-- Clef-inspired swirl -->
  <path d="M256 120c-15 0-25 10-25 25 0 20 20 30 35 45 20 20 30 45 30 70 0 50-40 90-90 90s-90-40-90-90c0-35 20-65 50-80" fill="none" stroke="#818cf8" stroke-width="24" stroke-linecap="round"/>
</svg>
